<svg width="68" height="64" viewBox="0 0 68 64" fill="none" xmlns="http://www.w3.org/2000/svg">
<g clip-path="url(#clip0_542_351)">
<path d="M53.6153 53.3334C52.8928 53.3334 52.3076 52.7368 52.3076 52.0001V43.7601C52.3076 43.0234 52.8928 42.4268 53.6153 42.4268C54.3378 42.4268 54.923 43.0234 54.923 43.7601V52.0001C54.923 52.7368 54.3378 53.3334 53.6153 53.3334Z" fill="#DFFEB9"/>
<path d="M53.6155 13.5733C52.893 13.5733 52.3078 12.9767 52.3078 12.24V8C52.3078 5.06 49.9605 2.66667 47.077 2.66667H7.84627C7.12377 2.66667 6.53857 2.07 6.53857 1.33333C6.53857 0.596667 7.12377 0 7.84627 0H47.077C51.4022 0 54.9232 3.59 54.9232 8V12.24C54.9232 12.9767 54.338 13.5733 53.6155 13.5733Z" fill="#DFFEB9"/>
<path d="M60.1538 64H20.9231C16.5979 64 13.0769 60.41 13.0769 56V8C13.0769 5.06 10.7296 2.66667 7.84615 2.66667C4.96269 2.66667 2.61538 5.06 2.61538 8V10.6667H9.15385C9.87635 10.6667 10.4615 11.2633 10.4615 12C10.4615 12.7367 9.87635 13.3333 9.15385 13.3333H1.30769C0.585192 13.3333 0 12.7367 0 12V8C0 3.59 3.52096 0 7.84615 0C12.1713 0 15.6923 3.59 15.6923 8V56C15.6923 58.94 18.0396 61.3333 20.9231 61.3333C23.8065 61.3333 26.1538 58.94 26.1538 56V52C26.1538 51.2633 26.739 50.6667 27.4615 50.6667H66.6923C67.4148 50.6667 68 51.2633 68 52V56C68 60.41 64.479 64 60.1538 64ZM26.7652 61.3333H60.1538C63.0373 61.3333 65.3846 58.94 65.3846 56V53.3333H28.7692V56C28.7692 58.0467 28.0108 59.9167 26.7652 61.3333Z" fill="#DFFEB9"/>
<path d="M51 45.3332C41.6271 45.3332 34 37.5565 34 27.9998C34 18.4432 41.6271 10.6665 51 10.6665C60.3729 10.6665 68 18.4432 68 27.9998C68 37.5565 60.3729 45.3332 51 45.3332ZM51 13.3332C43.0688 13.3332 36.6154 19.9132 36.6154 27.9998C36.6154 36.0865 43.0688 42.6665 51 42.6665C58.9312 42.6665 65.3846 36.0865 65.3846 27.9998C65.3846 19.9132 58.9312 13.3332 51 13.3332Z" fill="#DFFEB9"/>
<path d="M51.0001 37.3333C50.2776 37.3333 49.6924 36.7367 49.6924 36V25.3333C49.6924 24.5967 50.2776 24 51.0001 24C51.7226 24 52.3078 24.5967 52.3078 25.3333V36C52.3078 36.7367 51.7226 37.3333 51.0001 37.3333Z" fill="#DFFEB9"/>
<path d="M53.6156 37.3332H48.3848C47.6623 37.3332 47.0771 36.7365 47.0771 35.9998C47.0771 35.2632 47.6623 34.6665 48.3848 34.6665H53.6156C54.3381 34.6665 54.9233 35.2632 54.9233 35.9998C54.9233 36.7365 54.3381 37.3332 53.6156 37.3332Z" fill="#DFFEB9"/>
<path d="M51.0002 26.6667H48.3848C47.6623 26.6667 47.0771 26.07 47.0771 25.3333C47.0771 24.5967 47.6623 24 48.3848 24H51.0002C51.7227 24 52.3079 24.5967 52.3079 25.3333C52.3079 26.07 51.7227 26.6667 51.0002 26.6667Z" fill="#DFFEB9"/>
<path d="M51.0001 22C52.0834 22 52.9617 21.1046 52.9617 20C52.9617 18.8954 52.0834 18 51.0001 18C49.9168 18 49.0386 18.8954 49.0386 20C49.0386 21.1046 49.9168 22 51.0001 22Z" fill="#DFFEB9"/>
<path d="M35.3075 13.3332H22.2305C21.508 13.3332 20.9229 12.7365 20.9229 11.9998C20.9229 11.2632 21.508 10.6665 22.2305 10.6665H35.3075C36.03 10.6665 36.6152 11.2632 36.6152 11.9998C36.6152 12.7365 36.03 13.3332 35.3075 13.3332Z" fill="#DFFEB9"/>
<path d="M30.0767 24.0002H22.2305C21.508 24.0002 20.9229 23.4035 20.9229 22.6668C20.9229 21.9302 21.508 21.3335 22.2305 21.3335H30.0767C30.7992 21.3335 31.3844 21.9302 31.3844 22.6668C31.3844 23.4035 30.7992 24.0002 30.0767 24.0002Z" fill="#DFFEB9"/>
<path d="M30.0767 34.6667H22.2305C21.508 34.6667 20.9229 34.07 20.9229 33.3333C20.9229 32.5967 21.508 32 22.2305 32H30.0767C30.7992 32 31.3844 32.5967 31.3844 33.3333C31.3844 34.07 30.7992 34.6667 30.0767 34.6667Z" fill="#DFFEB9"/>
<path d="M35.3075 45.3332H22.2305C21.508 45.3332 20.9229 44.7365 20.9229 43.9998C20.9229 43.2632 21.508 42.6665 22.2305 42.6665H35.3075C36.03 42.6665 36.6152 43.2632 36.6152 43.9998C36.6152 44.7365 36.03 45.3332 35.3075 45.3332Z" fill="#DFFEB9"/>
</g>
<defs>
<clipPath id="clip0_542_351">
<rect width="68" height="64" fill="white"/>
</clipPath>
</defs>
</svg>
