<svg width="39" height="53" viewBox="0 0 39 53" fill="none" xmlns="http://www.w3.org/2000/svg">
<path d="M12.3679 26.897C13.7862 29.4871 15.4202 31.9755 17.5448 34.2482C19.6723 36.5299 22.3199 38.608 25.7475 40.3807C26.0017 40.5065 26.244 40.5065 26.4567 40.4196C26.7847 40.2939 27.1157 40.0214 27.4437 39.689C27.6978 39.4315 28.0139 39.0213 28.3449 38.5721C29.6628 36.8144 31.2968 34.6345 33.5987 35.7244C33.6489 35.7484 33.6873 35.7753 33.7375 35.7993L41.4232 40.2789C41.4468 40.2909 41.4734 40.3178 41.4971 40.3298C42.5106 41.0365 42.9272 42.1264 42.939 43.3601C42.939 44.6178 42.484 46.0311 41.8132 47.2229C40.9297 48.7979 39.6237 49.843 38.1196 50.5317C36.6895 51.1994 35.0968 51.5587 33.5632 51.7863C31.1579 52.1456 28.9063 51.9181 26.6015 51.1994C24.3499 50.4927 22.0805 49.3279 19.6014 47.7738L19.4182 47.6571C18.2806 46.9384 17.0513 46.1688 15.8487 45.2586C11.4341 41.8809 6.93974 37.009 4.01145 31.6431C1.55595 27.1425 0.217387 22.2797 0.950197 17.6473C1.35502 15.1081 2.43059 12.7964 4.30694 11.2723C5.94099 9.9368 8.14238 9.20617 10.9909 9.46369C11.3189 9.48765 11.6114 9.67929 11.7621 9.96375L16.6879 18.4049C17.4089 19.3511 17.4975 20.2884 17.1045 21.2286C16.7765 21.9982 16.1176 22.7049 15.2193 23.3696C14.9534 23.6002 14.6372 23.8307 14.3063 24.0763C13.2041 24.8848 11.9512 25.822 12.3797 26.9239L12.3679 26.897Z" stroke="#497844" stroke-width="1.5" stroke-linecap="round" stroke-linejoin="round"/>
<path d="M47.3595 0.75H28.3804C26.3267 0.75 24.6602 2.43883 24.6602 4.51993V17.1383C24.6602 19.2224 26.3267 20.9082 28.3804 20.9082H30.8772V27.2713L39.6946 20.9082H47.3625C49.4161 20.9082 51.0827 19.2194 51.0827 17.1383V4.51993C51.0827 2.43883 49.4161 0.75 47.3625 0.75H47.3595Z" stroke="#497844" stroke-width="1.5" stroke-linecap="round" stroke-linejoin="round"/>
</svg>
