<svg width="23" height="23" viewBox="0 0 23 23" fill="none" xmlns="http://www.w3.org/2000/svg">
<path d="M12.4951 10.1732V1.16114C12.4951 0.832193 12.6071 0.556431 12.8311 0.333859C13.0551 0.111286 13.3327 0 13.6638 0H21.8428C22.1739 0 22.4496 0.111286 22.6697 0.333859C22.8899 0.556431 23 0.832193 23 1.16114V6.24773C23 6.57668 22.8887 6.85244 22.6661 7.07502C22.4436 7.29735 22.1678 7.40852 21.8389 7.40852H15.2598L12.4951 10.1732ZM13.9326 5.97102H21.5625V1.4375H13.9326V5.97102ZM21.463 23C19.0396 23 16.5553 22.3933 14.0102 21.1798C11.4651 19.966 9.10057 18.2626 6.91653 16.0695C4.73273 13.8765 3.03396 11.5121 1.82023 8.97611C0.606745 6.44012 0 3.96043 0 1.53705C0 1.09789 0.14375 0.731926 0.43125 0.439155C0.71875 0.146384 1.07812 0 1.50937 0H5.06431C5.45507 0 5.796 0.123027 6.08709 0.369079C6.37843 0.615131 6.57572 0.930781 6.67898 1.31603L7.39198 4.74375C7.45835 5.14553 7.44637 5.49664 7.35605 5.79708C7.26572 6.09752 7.10628 6.34357 6.87772 6.53523L3.72384 9.47636C4.31346 10.5471 4.96536 11.5418 5.67956 12.4606C6.39376 13.3794 7.1554 14.2497 7.96447 15.0715C8.79918 15.9064 9.69761 16.6828 10.6598 17.4006C11.6217 18.1184 12.6777 18.7962 13.8277 19.4339L16.9018 16.3045C17.1358 16.052 17.3989 15.8857 17.691 15.8057C17.983 15.7254 18.306 15.7092 18.6598 15.7572L21.684 16.3764C22.0747 16.4722 22.3918 16.669 22.6352 16.9668C22.8784 17.2644 23 17.6058 23 17.991V21.4906C23 21.9219 22.8536 22.2812 22.5608 22.5688C22.2681 22.8562 21.9021 23 21.463 23ZM3.0493 8.12727L5.80822 5.58972C5.90022 5.51593 5.96011 5.41458 5.98791 5.28569C6.01546 5.15655 6.01079 5.03676 5.97389 4.92631L5.33528 1.87989C5.29839 1.73231 5.23394 1.62174 5.14194 1.54819C5.0497 1.4744 4.92991 1.4375 4.78256 1.4375H1.83281C1.72212 1.4375 1.63001 1.4744 1.55645 1.54819C1.48266 1.62174 1.44577 1.71386 1.44577 1.82455C1.47332 2.80684 1.62725 3.83238 1.90756 4.90116C2.18764 5.97018 2.56821 7.04555 3.0493 8.12727ZM15.1962 20.1085C16.1672 20.5896 17.2024 20.9452 18.3019 21.1755C19.4011 21.4059 20.359 21.5294 21.1755 21.546C21.2861 21.546 21.3783 21.5091 21.4518 21.4353C21.5256 21.3615 21.5625 21.2694 21.5625 21.1589V18.2728C21.5625 18.1254 21.5256 18.0056 21.4518 17.9134C21.3783 17.8214 21.2677 17.757 21.1201 17.7201L18.4607 17.1753C18.3503 17.1384 18.2536 17.1338 18.1707 17.1616C18.0876 17.1891 18 17.249 17.908 17.3413L15.1962 20.1085Z" fill="white"/>
</svg>
