<svg width="23" height="23" viewBox="0 0 23 23" fill="none" xmlns="http://www.w3.org/2000/svg">
<path d="M6.2445 17.5882H20.8143C21.0227 17.5882 21.2136 17.5015 21.387 17.3281C21.5604 17.1547 21.6471 16.9639 21.6471 16.7555V2.18568C21.6471 1.97732 21.5604 1.78645 21.387 1.61304C21.2136 1.43964 21.0227 1.35294 20.8143 1.35294H18.9412V9.62685L16.2353 8.01347L13.5294 9.62685V1.35294H6.2445C6.03615 1.35294 5.84527 1.43964 5.67187 1.61304C5.49847 1.78645 5.41177 1.97732 5.41177 2.18568V16.7555C5.41177 16.9639 5.49847 17.1547 5.67187 17.3281C5.84527 17.5015 6.03615 17.5882 6.2445 17.5882ZM6.2445 18.9412C5.6217 18.9412 5.10172 18.7326 4.68456 18.3154C4.2674 17.8983 4.05882 17.3783 4.05882 16.7555V2.18568C4.05882 1.56287 4.2674 1.04289 4.68456 0.625735C5.10172 0.208578 5.6217 0 6.2445 0H20.8143C21.4371 0 21.9571 0.208578 22.3743 0.625735C22.7914 1.04289 23 1.56287 23 2.18568V16.7555C23 17.3783 22.7914 17.8983 22.3743 18.3154C21.9571 18.7326 21.4371 18.9412 20.8143 18.9412H6.2445ZM2.18568 23C1.56287 23 1.04289 22.7914 0.625735 22.3743C0.208578 21.9571 0 21.4372 0 20.8147V4.89156H1.35294V20.8147C1.35294 21.0228 1.43964 21.2136 1.61304 21.387C1.78645 21.5604 1.97732 21.6471 2.18568 21.6471H18.1084V23H2.18568ZM6.2445 1.35294H5.41177H21.6471H6.2445Z" fill="#DFFEB9"/>
</svg>
