<?xml version="1.0" encoding="UTF-8" standalone="no"?>
<!DOCTYPE svg PUBLIC "-//W3C//DTD SVG 1.1//EN" "http://www.w3.org/Graphics/SVG/1.1/DTD/svg11.dtd">
<svg width="100%" height="100%" viewBox="0 0 96 64" version="1.1" xmlns="http://www.w3.org/2000/svg" xmlns:xlink="http://www.w3.org/1999/xlink" xml:space="preserve" xmlns:serif="http://www.serif.com/" style="fill-rule:evenodd;clip-rule:evenodd;stroke-linejoin:round;stroke-miterlimit:2;">
    <g transform="matrix(1,0,0,1,-220.48,-476.303)">
        <g transform="matrix(1.07763,0,0,1.07763,220.48,492.409)">
            <path d="M21.81,23.46L20.02,3.86L12.81,22.71C12.33,23.14 11.13,22.86 10.35,22.81L3.54,3.95L2.05,23.24C1.49,23.6 0.64,23.48 0,23.32L1.6,0.5C2.63,0.38 3.56,0.3 4.5,0.59L11.6,20.31L19.11,0.5C20.12,0.36 20.91,0.35 21.96,0.5L23.88,23.33C22.93,23.42 22.25,23.45 21.81,23.45L21.81,23.46Z" style="fill:rgb(225,236,181);fill-rule:nonzero;"/>
            <path d="M79.33,12.69L74.05,12.69C73.75,12.12 73.81,11.5 73.91,10.75L81.41,10.79L81.41,21.74C76.36,25.32 67.29,24.26 64.21,17.96C62.57,14.59 62.47,10.64 63.74,7.13C66.29,0.04 74.53,-1.7 80.46,1.63C80.88,2.1 80.59,3.28 80.5,3.78C77.15,1.95 73.34,1.47 69.99,3.09C66.56,4.75 65.02,8.3 65.06,12.02C65.09,15.27 66.1,18.35 68.94,20.16C72.01,22.12 76.05,22.17 79.33,20.61L79.33,12.69Z" style="fill:rgb(225,236,181);fill-rule:nonzero;"/>
            <path d="M53.7,23.52C50.89,23.98 48.11,23.62 45.75,22.29C45.56,21.57 45.72,21.03 45.53,19.84C47.92,21.43 50.99,22.21 53.98,21.36C55.65,20.89 56.58,19.53 56.74,18.1C56.94,16.33 56.05,14.94 54.4,14.16L48.9,11.56C46.6,10.47 45.47,8.39 45.58,5.95C45.69,3.51 47.23,1.56 49.71,0.77C52.17,-0.01 55.05,0.07 57.37,1.23C57.78,1.72 57.59,2.86 57.43,3.44C55.24,2.45 52.86,1.9 50.53,2.65C48.91,3.17 47.87,4.45 47.74,5.93C47.6,7.57 48.43,8.95 49.97,9.68L55.45,12.29C57.96,13.49 59.19,15.9 58.85,18.53C58.51,21.16 56.59,23.05 53.7,23.52Z" style="fill:rgb(225,236,181);fill-rule:nonzero;"/>
            <path d="M42.52,6.18L35.45,24.63C34.24,27.79 31.2,29.75 27.92,29.09C27.68,28.53 27.52,27.81 28.01,27.13C30.21,27.83 34.62,25.32 33.63,22.82L27.08,6.35C27.64,6.13 28.52,6.15 29.27,6.28L34.96,20.05L40.1,6.33C40.94,6.12 41.78,6.22 42.52,6.18Z" style="fill:rgb(225,236,181);fill-rule:nonzero;"/>
            <rect x="86.87" y="0.43" width="2.06" height="23.02" style="fill:rgb(225,236,181);"/>
        </g>
        <g transform="matrix(1,0,0,0.918841,1.14767,38.8617)">
            <rect x="219.332" y="476.079" width="95.833" height="69.323" style="fill:none;"/>
        </g>
    </g>
</svg>
