<?xml version="1.0" encoding="UTF-8"?>
<svg id="Layer_2" data-name="Layer 2" xmlns="http://www.w3.org/2000/svg" viewBox="0 0 117.19 117.19">
  <defs>
    <style>
      .cls-1 {
        fill: #f5f5f5;
      }

      .cls-2 {
        fill: #71a43e;
      }
    </style>
  </defs>
  <g id="Layer_1-2" data-name="Layer 1">
    <g>
      <circle class="cls-2" cx="58.59" cy="58.59" r="58.59"/>
      <g>
        <path class="cls-1" d="M35.94,67.45l-1.79-19.6-7.21,18.85c-.48.43-1.68.15-2.46.1l-6.82-18.85-1.49,19.29c-.56.36-1.41.24-2.05.08l1.6-22.83c1.03-.12,1.96-.2,2.9.09l7.1,19.72,7.51-19.8c1.01-.14,1.8-.15,2.85,0l1.92,22.83c-.95.09-1.63.12-2.07.12Z"/>
        <path class="cls-1" d="M93.45,56.68h-5.28c-.3-.57-.24-1.19-.14-1.94l7.5.04v10.95c-5.05,3.58-14.12,2.52-17.2-3.78-1.64-3.37-1.74-7.32-.47-10.83,2.56-7.09,10.79-8.83,16.72-5.51.42.47.13,1.65.04,2.15-3.35-1.83-7.16-2.31-10.51-.69s-4.97,5.21-4.93,8.93c.03,3.25,1.04,6.33,3.88,8.14,3.07,1.96,7.11,2.01,10.39.45v-7.91Z"/>
        <path class="cls-1" d="M67.83,67.5c-2.81.46-5.59.1-7.95-1.23-.19-.72-.03-1.26-.22-2.45,2.39,1.59,5.46,2.37,8.45,1.52,1.67-.47,2.6-1.83,2.76-3.26.2-1.77-.69-3.16-2.34-3.94l-5.5-2.6c-2.3-1.09-3.43-3.17-3.32-5.61s1.65-4.39,4.13-5.18,5.34-.7,7.66.46c.41.49.22,1.63.06,2.21-2.19-.99-4.57-1.54-6.9-.79-1.62.52-2.66,1.8-2.79,3.28-.14,1.64.69,3.02,2.23,3.75l5.48,2.61c2.51,1.2,3.74,3.61,3.4,6.24s-2.26,4.52-5.15,4.99Z"/>
        <path class="cls-1" d="M56.65,50.17l-7.07,18.45c-1.21,3.16-4.25,5.12-7.53,4.46-.24-.56-.4-1.28.09-1.96,2.2.7,6.61-1.81,5.62-4.31l-6.55-16.47c.56-.22,1.44-.2,2.19-.07l5.69,13.77,5.14-13.72c.84-.21,1.68-.11,2.42-.15Z"/>
        <rect class="cls-1" x="101" y="44.41" width="2.06" height="23.02"/>
      </g>
    </g>
  </g>
</svg>