<svg width="23" height="23" viewBox="0 0 23 23" fill="none" xmlns="http://www.w3.org/2000/svg">
<path d="M2.18568 23C1.56287 23 1.04289 22.7914 0.625735 22.3743C0.208578 21.9571 0 21.4371 0 20.8143V3.53862C0 2.91581 0.208578 2.39583 0.625735 1.97868C1.04289 1.56152 1.56287 1.35294 2.18568 1.35294H14.7782V2.70588H2.18568C1.97732 2.70588 1.78645 2.79258 1.61304 2.96599C1.43964 3.13939 1.35294 3.33026 1.35294 3.53862V20.8143C1.35294 21.0227 1.43964 21.2136 1.61304 21.387C1.78645 21.5604 1.97732 21.6471 2.18568 21.6471H19.4614C19.6697 21.6471 19.8606 21.5604 20.034 21.387C20.2074 21.2136 20.2941 21.0227 20.2941 20.8143V8.22182H21.6471V20.8143C21.6471 21.4371 21.4385 21.9571 21.0213 22.3743C20.6042 22.7914 20.0842 23 19.4614 23H2.18568ZM6.08824 18.2647V16.9118H15.5588V18.2647H6.08824ZM6.08824 14.2059V12.8529H15.5588V14.2059H6.08824ZM6.08824 10.1471V8.79412H15.5588V10.1471H6.08824ZM18.9412 6.76471V4.05882H16.2353V2.70588H18.9412V0H20.2941V2.70588H23V4.05882H20.2941V6.76471H18.9412Z" fill="white"/>
</svg>
