<svg width="22" height="21" viewBox="0 0 22 21" fill="none" xmlns="http://www.w3.org/2000/svg">
<path d="M11 9.52309C9.70357 9.52309 8.59375 9.05686 7.67054 8.12439C6.74732 7.19192 6.28571 6.07097 6.28571 4.76155C6.28571 3.45212 6.74732 2.33117 7.67054 1.3987C8.59375 0.466235 9.70357 0 11 0C12.2964 0 13.4062 0.466235 14.3295 1.3987C15.2527 2.33117 15.7143 3.45212 15.7143 4.76155C15.7143 6.07097 15.2527 7.19192 14.3295 8.12439C13.4062 9.05686 12.2964 9.52309 11 9.52309ZM0 21V18.3871C0 17.7319 0.188833 17.1188 0.5665 16.548C0.944429 15.9774 1.45265 15.5343 2.09118 15.2187C3.57408 14.5005 5.05791 13.9618 6.54264 13.6025C8.02738 13.2436 9.51317 13.0641 11 13.0641C12.4868 13.0641 13.9726 13.2436 15.4574 13.6025C16.9421 13.9618 18.4259 14.5005 19.9088 15.2187C20.5473 15.5343 21.0556 15.9774 21.4335 16.548C21.8112 17.1188 22 17.7319 22 18.3871V21H0ZM1.57143 19.4128H20.4286V18.3871C20.4286 18.035 20.3162 17.7043 20.0915 17.3951C19.867 17.0859 19.5563 16.8244 19.1593 16.6106C17.866 15.9779 16.5325 15.4931 15.1588 15.1564C13.7851 14.8196 12.3988 14.6513 11 14.6513C9.60117 14.6513 8.21491 14.8196 6.84122 15.1564C5.46752 15.4931 4.13404 15.9779 2.84075 16.6106C2.4437 16.8244 2.13295 17.0859 1.9085 17.3951C1.68379 17.7043 1.57143 18.035 1.57143 18.3871V19.4128ZM11 7.93591C11.8643 7.93591 12.6042 7.62509 13.2196 7.00344C13.8351 6.38179 14.1429 5.63449 14.1429 4.76155C14.1429 3.8886 13.8351 3.1413 13.2196 2.51965C12.6042 1.898 11.8643 1.58718 11 1.58718C10.1357 1.58718 9.39583 1.898 8.78036 2.51965C8.16488 3.1413 7.85714 3.8886 7.85714 4.76155C7.85714 5.63449 8.16488 6.38179 8.78036 7.00344C9.39583 7.62509 10.1357 7.93591 11 7.93591Z" fill="#E3E3E3"/>
</svg>
