<svg width="22" height="23" viewBox="0 0 22 23" fill="none" xmlns="http://www.w3.org/2000/svg">
<path d="M1 13.9043H8.35547C8.54877 13.9043 8.70605 14.0606 8.70605 14.2539V21.6094C8.70605 21.8027 8.54877 21.96 8.35547 21.96H1C0.8067 21.96 0.650391 21.8027 0.650391 21.6094V14.2539C0.650391 14.0606 0.806701 13.9043 1 13.9043Z" stroke="#FFFCFC" stroke-width="1.3" stroke-linejoin="round"/>
<path d="M15.7881 13.125C18.3356 13.125 20.4004 15.1898 20.4004 17.7373C20.4004 20.2848 18.3356 22.3496 15.7881 22.3496C13.2406 22.3496 11.1758 20.2848 11.1758 17.7373C11.1758 15.1898 13.2406 13.125 15.7881 13.125Z" stroke="#FFFCFC" stroke-width="1.3" stroke-linejoin="round"/>
<path d="M9.2478 1.83398C9.38244 1.60022 9.71969 1.60012 9.85425 1.83398L14.1697 9.35059C14.3036 9.58392 14.135 9.875 13.866 9.875H5.23608C4.96704 9.875 4.79842 9.58392 4.93237 9.35059L9.2478 1.83398Z" stroke="#FFFCFC" stroke-width="1.3" stroke-linejoin="round"/>
</svg>
