<svg width="31" height="24" viewBox="0 0 31 24" fill="none" xmlns="http://www.w3.org/2000/svg">
<path d="M7.571 18.9292V21.2614C7.571 21.9357 7.02501 22.4814 6.35321 22.4814H3.71144C3.03835 22.4814 2.49365 21.9344 2.49365 21.2614V18.9292" stroke="white" stroke-width="1.5" stroke-linecap="round" stroke-linejoin="round"/>
<path d="M3.42987 11.3989H6.05479C7.62792 11.3989 8.90407 12.6774 8.90407 14.2534V15.1135H3.27295" stroke="white" stroke-width="1.5" stroke-linecap="round" stroke-linejoin="round"/>
<path d="M1.79293 7.56561H1.69307C1.06277 7.56561 0.610158 6.95755 0.790426 6.35209L0.984961 5.69727C1.10427 5.29709 1.4713 5.02295 1.8876 5.02295H4.21034" stroke="white" stroke-width="1.5" stroke-linecap="round" stroke-linejoin="round"/>
<path d="M19.1794 17.921C19.881 17.921 20.5774 18.0523 21.231 18.3069C21.8847 18.5616 22.5811 18.6928 23.2827 18.6928H27.3913C28.5261 18.6928 29.4456 17.7716 29.4456 16.6348V11.7015C29.4456 9.92929 28.5611 8.27403 27.0904 7.29178C26.1113 6.63826 25.3785 5.6755 25.0063 4.55814L24.5148 3.07958C24.0518 1.68807 22.7523 0.75 21.2881 0.75H9.677C8.21281 0.75 6.91332 1.68807 6.45033 3.07958L5.9588 4.55814C5.5866 5.6768 4.85385 6.63826 3.87469 7.29178C2.40272 8.27533 1.51953 9.92929 1.51953 11.7015V16.6348C1.51953 17.7716 2.43903 18.6928 3.57381 18.6928H7.68238C8.384 18.6928 9.08043 18.5616 9.73407 18.3069C10.3877 18.0523 11.0841 17.921 11.7858 17.921H19.1794Z" stroke="white" stroke-width="1.5" stroke-linecap="round" stroke-linejoin="round"/>
<path d="M27.1477 7.41016H3.81787" stroke="white" stroke-width="1.5" stroke-linecap="round" stroke-linejoin="round"/>
<path d="M23.394 18.9292V21.2614C23.394 21.9357 23.94 22.4814 24.6118 22.4814H27.2536C27.9267 22.4814 28.4714 21.9344 28.4714 21.2614V18.9292" stroke="white" stroke-width="1.5" stroke-linecap="round" stroke-linejoin="round"/>
<path d="M27.5352 11.3989H24.9103C23.3372 11.3989 22.061 12.6774 22.061 14.2534V15.1135H27.6922" stroke="white" stroke-width="1.5" stroke-linecap="round" stroke-linejoin="round"/>
<path d="M19.1001 15.1133H11.8647" stroke="white" stroke-width="1.5" stroke-linecap="round" stroke-linejoin="round"/>
<path d="M29.1703 7.56561H29.2702C29.9005 7.56561 30.3531 6.95755 30.1728 6.35209L29.9783 5.69727C29.859 5.29709 29.492 5.02295 29.0757 5.02295H26.7529" stroke="white" stroke-width="1.5" stroke-linecap="round" stroke-linejoin="round"/>
</svg>
