<svg width="72" height="67" viewBox="0 0 72 67" fill="none" xmlns="http://www.w3.org/2000/svg">
<path d="M43.0486 52.2072L56.0912 47.1552C57.7358 46.7279 59.2041 46.9377 60.3005 47.5126C60.3005 47.5126 62.104 48.7207 62.2802 50.7407" stroke="#497844" stroke-width="1.5" stroke-linecap="round" stroke-linejoin="round"/>
<path d="M62.2802 50.7406C62.2008 51.6186 61.7184 52.5315 60.7208 53.3375C53.4722 57.6339 46.0589 61.1398 38.5022 63.9406C32.9931 66.6578 27.5653 66.4539 22.2073 63.6143L11.6772 59.5548V43.7581L23.2417 43.8824C26.8389 44.5078 30.4051 46.2559 33.9636 48.272L40.5807 48.4041C43.5716 48.6177 45.069 51.2456 42.113 52.8947C39.7517 54.3028 36.693 54.1611 33.5626 53.8561C32.9079 53.8153 32.4371 54.0154 32.1621 54.3145" stroke="#497844" stroke-width="1.5" stroke-linecap="round" stroke-linejoin="round"/>
<path d="M2.12341 42.0178L9.8912 41.9692C10.8752 41.9692 11.6753 42.7695 11.6753 43.7581V59.5549C11.6753 60.5416 10.8772 61.3437 9.8912 61.3437H2.53407C1.55002 61.3437 0.75 60.5435 0.75 59.5549V43.7581C0.75 42.9113 1.33694 42.2043 2.12341 42.0197" stroke="#497844" stroke-width="1.5" stroke-linecap="round" stroke-linejoin="round"/>
<path d="M36.9777 37.5601C36.8654 36.253 37.2431 36.5424 37.5414 34.4971C38.2795 31.5001 38.7482 29.0276 39.4437 27.5145" stroke="#497844" stroke-width="1.5" stroke-linecap="round" stroke-linejoin="round"/>
<path d="M56.4282 8.64118C56.1977 8.65283 56.004 8.74994 55.8122 8.86648C53.2087 10.4514 50.8319 12.3257 48.6779 14.4856C47.7635 15.4023 46.8589 16.3327 46.0376 17.3349C44.2612 19.5064 42.6283 21.7809 41.2219 24.2146C40.5962 25.2984 39.9996 26.3958 39.4417 27.5146C39.2558 27.8875 38.9904 28.1361 38.5565 28.1555C38.1226 28.1769 37.8649 27.9127 37.6751 27.5709C36.9312 26.221 36.352 24.8186 36.1777 23.2648C35.9976 21.6682 35.9026 20.0794 36.2126 18.4867C36.6969 15.9909 37.7623 13.7805 39.3662 11.8091C41.4912 9.19667 44.1876 7.35537 47.1669 5.88699C50.0687 4.45745 53.1235 3.45716 56.2616 2.70355C57.9721 2.29178 59.6961 1.94022 61.4337 1.66441C62.5495 1.48766 63.6633 1.32062 64.7868 1.19437C66.3733 1.01568 67.9637 0.877779 69.554 0.757356C70.0984 0.716568 70.2863 0.842818 70.4528 1.35559C70.4625 1.49543 70.4742 1.63528 70.4838 1.77512C70.4451 2.03734 70.3056 2.24322 70.1352 2.44328C68.446 4.43997 66.9796 6.58427 65.8793 8.9636C64.8294 11.2342 64.1088 13.6096 63.6982 16.0802C63.3902 17.9351 63.1751 19.8075 62.7374 21.641C62.1407 24.1349 61.3058 26.5318 59.791 28.6353C58.2026 30.8398 56.0931 32.2965 53.4664 32.988C51.8993 33.3997 50.305 33.5182 48.6875 33.4658C46.7776 33.4036 44.9392 33.0482 43.1803 32.2985C41.8747 32.011 40.2127 30.8476 38.909 28.9655" stroke="#497844" stroke-width="1.5" stroke-linecap="round" stroke-linejoin="round"/>
<path d="M34.4808 38.209C34.0624 36.5871 32.5883 35.245 31.98 34.1884C30.9243 32.7064 30.132 31.4517 29.423 30.7738" stroke="#497844" stroke-width="1.5" stroke-linecap="round" stroke-linejoin="round"/>
<path d="M16.0182 24.1292C16.148 24.0845 16.2739 24.0961 16.4057 24.1175C18.1762 24.4186 19.8866 24.9294 21.5351 25.6422C22.2363 25.9452 22.9318 26.2579 23.6001 26.6289C25.0451 27.433 26.4341 28.3226 27.7319 29.352C28.3092 29.8104 28.8748 30.2804 29.423 30.7738C29.6051 30.9369 29.8046 31.0166 30.0468 30.933C30.2889 30.8495 30.3741 30.6495 30.4032 30.4203C30.5175 29.519 30.531 28.6236 30.2908 27.7321C30.0429 26.8173 29.7504 25.9258 29.2351 25.1197C28.4293 23.8553 27.3639 22.8783 26.0583 22.1461C24.3265 21.1768 22.4494 20.7554 20.4968 20.6C18.5965 20.4485 16.704 20.567 14.8192 20.8369C13.7925 20.9846 12.7697 21.1671 11.7585 21.3944C11.1096 21.5401 10.4607 21.6916 9.81756 21.8683C8.90906 22.1169 8.00637 22.3869 7.10949 22.6685C6.80149 22.7637 6.72594 22.8744 6.74725 23.193C6.77243 23.2726 6.79568 23.3503 6.82086 23.4299C6.90028 23.5659 7.02038 23.6475 7.15598 23.7193C8.51389 24.4457 9.78463 25.3023 10.9043 26.3667C11.9716 27.3825 12.8821 28.5285 13.6433 29.7929C14.2148 30.7427 14.7378 31.7236 15.3751 32.6326C16.2429 33.8698 17.2212 35.0022 18.5074 35.8257C19.8556 36.6881 21.3298 37.028 22.9201 36.8338C23.8693 36.7172 24.7681 36.4356 25.6437 36.053C26.6781 35.6023 27.6079 35.0061 28.4099 34.2117C29.0627 33.7688 29.7233 32.7685 30.0293 31.4536" stroke="#497844" stroke-width="1.5" stroke-linecap="round" stroke-linejoin="round"/>
<path d="M26.2907 44.6632C26.2907 44.6632 27.174 41.2622 30.4826 40.5591C33.7912 39.856 33.8842 38.5624 33.8842 38.5624C33.8842 38.5624 36.2823 36.7133 40.0616 38.0069C43.8409 39.3005 45.778 36.7133 49.2822 41.5205C52.7864 46.3277 54.6306 46.9279 54.6306 46.9279" stroke="#497844" stroke-width="1.5" stroke-linecap="round" stroke-linejoin="round"/>
</svg>
