<svg width="23" height="23" viewBox="0 0 23 23" fill="none" xmlns="http://www.w3.org/2000/svg">
<path d="M11.8774 22.2453C10.4825 22.2453 9.16875 22.0033 7.93599 21.5195C6.70324 21.0357 5.59494 20.37 4.61112 19.5226L1.31684 22.7772C1.17489 22.9257 0.994283 23 0.775008 23C0.555734 23 0.371813 22.9257 0.223247 22.7772C0.0744155 22.6283 0 22.4443 0 22.225C0 22.0057 0.0744155 21.8251 0.223247 21.6832L3.47741 18.429C2.62997 17.4449 1.96434 16.33 1.4805 15.0843C0.996667 13.8385 0.75475 12.518 0.75475 11.1226C0.75475 8.01756 1.83219 5.38759 3.98706 3.23271C6.1422 1.07757 8.77231 0 11.8774 0H23V11.1226C23 14.2277 21.9226 16.8578 19.7677 19.0129C17.6125 21.1678 14.9824 22.2453 11.8774 22.2453ZM11.8774 20.6563C14.5256 20.6563 16.7766 19.7294 18.6304 17.8756C20.4842 16.0219 21.4111 13.7709 21.4111 11.1226V1.58895H11.8774C9.22913 1.58895 6.97812 2.51583 5.12435 4.3696C3.27058 6.22337 2.3437 8.47438 2.3437 11.1226C2.3437 12.2982 2.54337 13.412 2.94273 14.4642C3.34182 15.5163 3.901 16.457 4.62026 17.2861L12.9348 8.97159C13.0765 8.82276 13.2571 8.74834 13.4766 8.74834C13.6959 8.74834 13.883 8.8258 14.0379 8.98073C14.2069 9.14968 14.2914 9.33559 14.2914 9.53845C14.2914 9.74104 14.2037 9.92999 14.0284 10.1053L5.71425 18.3893C6.54315 19.1083 7.48367 19.6659 8.53582 20.062C9.58823 20.4582 10.7021 20.6563 11.8774 20.6563Z" fill="white"/>
</svg>
