<svg width="27" height="27" viewBox="0 0 27 27" fill="none" xmlns="http://www.w3.org/2000/svg">
<path d="M11.4202 13.5L16.0328 18.1125L15 19.1828L9.31725 13.5L15 7.81725L16.0328 8.8875L11.4202 13.5ZM13.4951 27C15.3619 27 17.117 26.6458 18.7605 25.9373C20.4037 25.2288 21.8333 24.2673 23.049 23.0527C24.2647 21.8383 25.2271 20.41 25.9361 18.768C26.6454 17.1263 27 15.3719 27 13.5049C27 11.6381 26.6458 9.883 25.9373 8.2395C25.2288 6.59625 24.2673 5.16675 23.0528 3.951C21.8383 2.73525 20.41 1.77287 18.768 1.06387C17.1263 0.354625 15.3719 0 13.5049 0C11.6381 0 9.883 0.354251 8.2395 1.06275C6.59625 1.77125 5.16675 2.73275 3.951 3.94725C2.73525 5.16175 1.77287 6.59 1.06387 8.232C0.354624 9.87375 -1.90735e-06 11.6281 -1.90735e-06 13.4951C-1.90735e-06 15.3619 0.35425 17.117 1.06275 18.7605C1.77125 20.4038 2.73275 21.8333 3.94725 23.049C5.16175 24.2648 6.59 25.2271 8.232 25.9361C9.87375 26.6454 11.6281 27 13.4951 27ZM13.5 25.5C10.15 25.5 7.3125 24.3375 4.9875 22.0125C2.6625 19.6875 1.5 16.85 1.5 13.5C1.5 10.15 2.6625 7.3125 4.9875 4.9875C7.3125 2.6625 10.15 1.5 13.5 1.5C16.85 1.5 19.6875 2.6625 22.0125 4.9875C24.3375 7.3125 25.5 10.15 25.5 13.5C25.5 16.85 24.3375 19.6875 22.0125 22.0125C19.6875 24.3375 16.85 25.5 13.5 25.5Z" fill="white"/>
</svg>
